<?xml version="1.0" standalone="no"?>
<!DOCTYPE svg PUBLIC "-//W3C//DTD SVG 20010904//EN"
 "http://www.w3.org/TR/2001/REC-SVG-20010904/DTD/svg10.dtd">
<svg version="1.0" xmlns="http://www.w3.org/2000/svg"
 width="300.000000pt" height="300.000000pt" viewBox="0 0 300.000000 300.000000"
 preserveAspectRatio="xMidYMid meet">

<g transform="translate(0.000000,300.000000) scale(0.100000,-0.100000)"
fill="#000000" stroke="none">
<path d="M1490 2681 c0 -51 13 -81 34 -81 12 0 35 -14 52 -31 16 -17 37 -35
47 -40 15 -8 17 -5 17 28 0 32 -7 43 -52 84 -28 27 -55 46 -59 43 -4 -2 -10 0
-14 6 -10 16 -25 11 -25 -9z"/>
<path d="M1249 2572 c-80 -88 -78 -83 -59 -128 11 -24 28 -45 45 -52 33 -15
40 -11 26 16 -18 33 -13 67 15 97 23 25 24 29 10 44 -14 15 -14 19 0 40 30 42
7 32 -37 -17z"/>
<path d="M1537 2512 c-24 -24 -37 -47 -37 -64 0 -47 14 -38 52 33 20 38 34 69
30 69 -5 0 -25 -17 -45 -38z"/>
<path d="M1628 2462 c-66 -71 -70 -80 -58 -159 5 -37 11 -88 12 -112 l3 -45
28 42 c18 28 35 79 52 154 13 62 22 115 19 119 -2 4 0 10 6 14 15 9 12 35 -4
35 -7 0 -34 -22 -58 -48z"/>
<path d="M1375 2427 c-55 -54 -64 -74 -65 -136 0 -68 18 -129 42 -142 30 -16
38 -2 22 37 -13 32 -13 41 0 82 20 65 50 192 45 196 -2 1 -22 -15 -44 -37z"/>
<path d="M275 2418 c-3 -7 -4 -289 -3 -626 l3 -613 135 -55 c74 -30 153 -62
175 -70 22 -9 87 -35 145 -59 182 -75 208 -85 224 -85 14 0 16 64 16 619 l0
619 -37 13 c-21 6 -68 27 -104 45 -37 18 -69 30 -72 27 -4 -3 -26 6 -50 20
-24 14 -73 37 -108 51 -93 36 -197 80 -248 105 -51 24 -70 26 -76 9z"/>
<path d="M2655 2421 c-6 -5 -39 -21 -75 -35 -36 -15 -81 -36 -101 -46 -20 -11
-42 -20 -49 -20 -7 0 -56 -20 -109 -44 -87 -40 -239 -104 -283 -119 -17 -6
-18 -45 -18 -627 0 -489 3 -620 13 -620 6 0 36 11 65 25 30 14 58 25 64 25 5
0 51 18 101 39 51 21 151 62 222 91 72 29 144 58 162 66 17 8 38 14 47 14 15
0 16 57 14 628 -3 620 -3 627 -23 630 -11 1 -25 -1 -30 -7z"/>
<path d="M1420 2291 c-17 -33 -11 -86 13 -123 13 -19 28 -48 33 -64 7 -24 9
-15 12 48 2 62 -1 85 -18 118 -11 22 -22 40 -25 40 -2 0 -9 -9 -15 -19z"/>
<path d="M1340 1980 l0 -90 -160 0 -160 0 0 -650 0 -650 -45 0 -44 0 -3 146
-3 145 -395 160 c-217 87 -398 159 -402 159 -5 0 -7 -64 -6 -142 l3 -143 395
-160 395 -160 -102 -3 -103 -3 0 -109 0 -110 170 0 170 0 0 -52 1 -53 115 -70
c64 -38 128 -79 142 -90 49 -38 163 -105 177 -105 8 0 63 31 122 68 59 38 154
98 210 133 l102 64 1 53 0 52 200 0 200 0 0 110 0 110 -132 1 c-129 1 -132 1
-98 16 19 9 198 82 398 163 l363 147 2 141 c1 95 -2 142 -9 142 -6 0 -181 -69
-390 -153 -208 -85 -387 -156 -396 -160 -16 -6 -18 -22 -18 -152 l0 -146 -37
3 -38 3 -3 647 -2 648 -168 2 -167 3 -3 41 -3 41 -36 -33 c-35 -32 -99 -62
-110 -51 -3 3 13 15 35 26 59 30 112 88 112 123 l0 28 -140 0 -140 0 0 -90z
m4 -109 c3 -4 24 -4 46 2 30 8 43 8 52 -1 9 -9 5 -12 -19 -12 -18 0 -43 -4
-57 -10 -23 -8 -26 -15 -26 -55 0 -51 16 -65 53 -47 12 6 43 13 70 16 35 4 62
17 101 46 30 23 57 48 60 56 5 12 32 14 163 12 l158 -3 0 -635 0 -635 -452 -3
-453 -2 0 640 0 640 149 0 c83 0 152 -4 155 -9z m-434 -1129 c0 -96 -3 -123
-12 -119 -7 3 -179 73 -383 155 l-370 150 -3 125 -3 124 386 -156 385 -155 0
-124z m1923 390 c6 -49 -2 -195 -11 -203 -5 -4 -495 -204 -754 -307 -4 -2 -8
14 -8 36 0 35 4 41 30 52 30 12 44 38 15 26 -8 -3 -15 -1 -15 5 0 5 7 12 15
15 8 4 15 11 15 16 0 6 -7 8 -15 4 -8 -3 -15 -1 -15 3 0 5 7 11 15 15 8 3 15
10 15 16 0 7 -6 8 -19 0 -32 -17 -41 -12 -41 23 l0 33 373 151 c204 83 377
152 383 152 6 1 14 -16 17 -37z m-533 -652 l0 -90 -785 0 -785 0 0 90 0 90
785 0 785 0 0 -90z"/>
<path d="M1563 1785 c-26 -20 -59 -36 -85 -40 -24 -3 -62 -11 -85 -18 -43 -11
-43 -12 -43 -59 0 -26 4 -49 8 -52 18 -11 172 40 216 71 44 31 46 35 46 83 0
27 -3 50 -7 49 -5 0 -27 -16 -50 -34z"/>
<path d="M1565 1657 c-16 -12 -68 -32 -115 -43 l-85 -22 -3 -43 c-4 -69 3 -73
86 -50 70 19 124 48 150 79 13 17 17 102 5 102 -5 0 -21 -11 -38 -23z"/>
<path d="M1564 1526 c-16 -14 -59 -32 -94 -41 -89 -23 -101 -31 -95 -60 18
-89 8 -85 105 -43 84 36 109 56 116 93 3 18 4 42 2 54 -3 21 -3 21 -34 -3z"/>
<path d="M1565 1402 c-5 -6 -45 -24 -87 -42 -63 -26 -78 -36 -78 -53 1 -50 13
-51 93 -14 58 27 78 42 83 61 8 33 2 60 -11 48z"/>
<path d="M1505 1275 c-27 -13 -58 -25 -67 -29 -21 -6 -23 -16 -5 -38 10 -14
19 -15 59 -5 42 10 47 15 58 50 6 21 10 40 8 42 -2 1 -25 -8 -53 -20z"/>
<path d="M1477 1183 c-21 -6 -17 -27 6 -31 8 -2 21 6 27 17 11 22 6 24 -33 14z"/>
<path d="M1260 1121 c0 -15 14 -53 30 -84 17 -31 30 -58 30 -61 0 -2 -18 -6
-40 -10 -154 -25 -159 -84 -8 -115 l56 -12 -33 -57 c-31 -53 -39 -77 -36 -109
3 -36 96 6 180 82 l41 37 47 -38 c78 -65 127 -94 157 -94 27 0 28 2 23 37 -4
20 -20 59 -37 86 -35 56 -32 61 33 71 53 9 107 35 107 52 0 21 -42 43 -106 56
-32 7 -60 13 -62 14 -1 1 11 24 28 51 17 27 33 66 37 86 5 35 4 37 -23 37 -30
0 -79 -29 -157 -94 l-47 -38 -41 37 c-57 51 -129 95 -156 95 -19 0 -23 -5 -23
-29z m59 0 c20 -11 63 -41 95 -66 69 -56 64 -75 -18 -75 -52 0 -52 0 -83 53
-31 51 -51 107 -39 107 4 0 24 -9 45 -19z m367 -24 c-3 -12 -19 -43 -35 -69
-30 -48 -31 -48 -85 -48 -32 0 -58 5 -62 12 -9 15 84 100 140 128 43 21 52 16
42 -23z m-262 -139 c-20 -36 -26 -39 -47 -21 -19 18 -19 18 9 24 44 10 46 10
38 -3z m96 -8 c36 -36 18 -90 -30 -90 -79 0 -77 101 3 109 4 1 16 -8 27 -19z
m69 -12 c-10 -19 -12 -19 -30 -2 -27 24 -24 31 11 26 26 -4 28 -7 19 -24z
m-230 -4 c19 -24 19 -27 4 -51 -15 -23 -21 -25 -66 -19 -27 4 -67 14 -89 23
-33 13 -37 18 -26 29 11 11 109 41 145 43 6 1 21 -11 32 -25z m384 0 c27 -9
46 -21 44 -27 -5 -15 -68 -37 -127 -44 -41 -5 -47 -3 -59 20 -11 21 -11 28 5
52 15 23 22 26 53 20 20 -3 58 -13 84 -21z m-323 -75 c0 -5 -11 -9 -25 -9 -27
0 -32 9 -13 28 12 12 38 -1 38 -19z m170 11 c10 -18 8 -20 -21 -20 -31 0 -32
0 -14 20 10 11 19 20 21 20 2 0 8 -9 14 -20z m-132 -54 c10 -10 0 -23 -50 -63
-74 -59 -124 -87 -133 -73 -7 11 14 63 49 119 27 42 27 42 74 35 26 -3 53 -12
60 -18z m195 -38 c20 -35 37 -73 37 -85 0 -20 -3 -21 -29 -12 -38 14 -163 117
-158 132 3 11 45 23 93 26 15 1 30 -15 57 -61z"/>
<path d="M160 1040 c0 -45 3 -52 26 -60 35 -14 42 -13 54 9 15 28 -3 67 -39
86 -17 8 -32 15 -36 15 -3 0 -5 -23 -5 -50z m50 5 c15 -18 9 -50 -10 -50 -10
0 -16 12 -18 33 -3 34 8 41 28 17z"/>
<path d="M260 990 c0 -27 5 -50 10 -50 6 0 10 23 10 50 0 28 -4 50 -10 50 -5
0 -10 -22 -10 -50z"/>
<path d="M303 1004 c-3 -8 4 -25 16 -38 26 -28 27 -40 1 -26 -13 7 -20 7 -20
1 0 -15 39 -33 56 -27 20 8 17 30 -6 51 -24 21 -26 37 -5 29 8 -4 15 -2 15 4
0 10 -23 22 -41 22 -5 0 -12 -7 -16 -16z"/>
<path d="M392 978 c-15 -15 -15 -48 1 -69 16 -21 57 -42 65 -33 4 4 1 9 -7 12
-22 8 -53 42 -48 55 2 7 16 12 30 12 34 -1 35 13 1 25 -31 12 -28 12 -42 -2z"/>
<path d="M470 911 c0 -39 4 -51 16 -51 12 0 14 10 12 47 -4 66 -28 70 -28 4z"/>
<path d="M520 890 c0 -27 5 -50 10 -50 6 0 10 7 10 15 0 9 8 14 22 12 33 -3
37 36 6 57 -39 27 -48 21 -48 -34z m44 -1 c-8 -13 -24 -1 -24 18 0 13 3 13 15
3 8 -7 12 -16 9 -21z"/>
<path d="M600 855 c0 -39 4 -46 30 -60 34 -17 40 -18 40 -6 0 5 -9 13 -20 16
-16 5 -20 15 -20 51 0 32 -4 44 -15 44 -11 0 -15 -12 -15 -45z"/>
<path d="M680 821 c0 -39 4 -51 16 -51 12 0 14 10 12 47 -4 66 -28 70 -28 4z"/>
<path d="M720 810 c0 -54 20 -81 21 -28 l0 33 22 -42 c29 -59 49 -57 45 4 -2
29 -8 48 -17 51 -10 3 -13 -2 -9 -21 6 -33 -6 -26 -22 12 -21 51 -40 47 -40
-9z"/>
<path d="M830 766 c0 -51 2 -55 30 -65 34 -11 41 2 10 19 -27 14 -25 29 3 24
l22 -5 -22 17 c-28 20 -30 39 -3 24 13 -7 20 -7 20 -1 0 6 -13 17 -30 26 l-30
16 0 -55z"/>
<path d="M2788 1089 c-13 -7 -18 -23 -18 -54 0 -50 -1 -49 35 -33 30 13 34 28
5 21 -27 -7 -25 11 3 25 l22 11 -25 1 -25 0 25 20 c27 21 10 28 -22 9z"/>
<path d="M2719 1060 c-9 -5 -22 -23 -29 -40 -11 -27 -11 -34 2 -47 14 -13 19
-13 44 1 l29 15 -27 1 c-21 0 -28 5 -28 19 0 11 12 29 28 40 27 21 13 30 -19
11z"/>
<path d="M2650 1009 l0 -31 -18 22 c-11 13 -24 20 -30 16 -15 -9 -16 -96 -2
-96 6 0 10 15 10 33 l1 32 19 -23 c11 -13 24 -21 30 -17 13 8 13 95 0 95 -5 0
-10 -14 -10 -31z"/>
<path d="M2538 993 c-14 -3 -18 -15 -18 -54 0 -55 -1 -54 35 -37 30 13 34 32
5 23 -23 -7 -28 10 -5 19 21 8 19 27 -2 20 -12 -4 -9 1 7 15 25 20 18 25 -22
14z"/>
<path d="M2450 911 c0 -44 2 -49 20 -44 10 3 25 12 32 21 11 13 10 14 -10 8
-20 -7 -22 -4 -22 28 0 20 -4 36 -10 36 -5 0 -10 -22 -10 -49z"/>
<path d="M2380 880 c0 -47 1 -49 22 -41 12 4 24 13 26 19 2 7 -3 10 -12 6 -13
-5 -16 1 -16 30 0 20 -4 36 -10 36 -5 0 -10 -22 -10 -50z"/>
<path d="M2328 906 c-25 -9 -28 -15 -28 -57 l0 -48 30 10 c33 12 42 34 10 24
-11 -3 -20 -2 -20 4 0 5 9 13 20 16 28 9 25 28 -2 20 -22 -6 -22 -6 2 14 30
24 25 31 -12 17z"/>
<path d="M2247 869 c-22 -13 -39 -53 -31 -74 6 -16 31 -19 58 -9 26 10 18 25
-9 18 -21 -5 -25 -3 -25 14 0 11 12 30 28 41 28 21 12 29 -21 10z"/>
<path d="M2183 830 c-4 -16 -8 -18 -19 -9 -19 16 -28 5 -16 -17 6 -11 7 -27 1
-42 -12 -32 -4 -40 11 -12 8 16 15 19 24 11 19 -16 26 -3 14 24 -7 16 -7 29 1
44 9 15 9 21 0 21 -6 0 -13 -9 -16 -20z"/>
<path d="M1012 518 c-18 -18 -15 -36 8 -48 11 -6 20 -16 20 -22 0 -5 -9 -8
-20 -5 -13 3 -20 0 -20 -10 0 -10 9 -13 33 -11 40 4 50 39 18 60 -24 15 -28
30 -7 26 8 -2 16 2 18 7 5 15 -35 18 -50 3z"/>
<path d="M1084 516 c-3 -8 -4 -31 -2 -52 3 -36 6 -39 36 -42 18 -2 32 1 32 7
0 6 -9 11 -20 11 -26 0 -26 16 1 23 24 6 17 27 -9 28 -12 0 -10 3 6 10 13 5
20 13 17 19 -9 15 -55 12 -61 -4z"/>
<path d="M1164 516 c-3 -8 -4 -31 -2 -52 3 -36 6 -39 36 -42 18 -2 32 1 32 7
0 6 -9 11 -20 11 -17 0 -20 7 -20 45 0 43 -15 61 -26 31z"/>
<path d="M1240 475 c0 -42 3 -55 15 -55 8 0 15 9 15 20 0 11 7 20 15 20 8 0
15 5 15 10 0 6 -7 10 -15 10 -22 0 -18 17 6 23 29 8 14 27 -22 27 -29 0 -29
-1 -29 -55z"/>
<path d="M1357 523 c-4 -3 -7 -28 -7 -55 0 -36 4 -48 15 -48 8 0 15 9 15 20 0
11 4 20 9 20 5 0 11 -9 14 -20 10 -37 24 -21 23 25 -1 46 -14 65 -47 65 -9 0
-19 -3 -22 -7z m43 -34 c0 -5 -4 -9 -10 -9 -5 0 -10 7 -10 16 0 8 5 12 10 9 6
-3 10 -10 10 -16z"/>
<path d="M1440 475 c0 -54 0 -55 29 -55 17 0 33 5 36 10 3 6 -3 10 -14 10 -12
0 -21 5 -21 10 0 6 7 10 15 10 21 0 19 28 -2 33 -17 4 -17 5 0 6 31 2 20 31
-13 31 -30 0 -30 -1 -30 -55z"/>
<path d="M1520 476 l0 -56 35 0 c19 0 35 5 35 10 0 6 -9 10 -19 10 -16 0 -20
8 -23 42 -5 66 -28 61 -28 -6z"/>
<path d="M1600 475 c0 -30 5 -55 10 -55 6 0 10 25 10 55 0 30 -4 55 -10 55 -5
0 -10 -25 -10 -55z"/>
<path d="M1659 503 c-26 -69 -22 -104 7 -65 13 16 15 16 28 0 19 -26 39 -23
30 5 -15 50 -34 87 -44 87 -6 0 -15 -12 -21 -27z"/>
<path d="M1740 474 c0 -39 4 -54 12 -52 7 3 15 15 18 28 5 23 5 23 18 -4 18
-41 37 -27 37 27 0 49 -16 65 -25 26 -5 -21 -6 -21 -17 5 -7 14 -19 26 -28 26
-12 0 -15 -13 -15 -56z"/>
<path d="M1857 512 c-34 -37 -11 -92 39 -92 30 0 32 18 2 22 -17 2 -24 11 -26
30 -3 22 2 29 22 34 14 3 26 10 26 15 0 16 -47 9 -63 -9z"/>
<path d="M1937 523 c-4 -3 -7 -28 -7 -55 l0 -48 35 0 c19 0 35 5 35 10 0 6 -9
10 -20 10 -11 0 -20 5 -20 10 0 6 7 10 15 10 21 0 19 30 -2 31 -14 0 -12 3 5
10 13 5 20 13 17 19 -7 11 -48 14 -58 3z"/>
</g>
</svg>
